<?xml version="1.0" encoding="utf-8"?>
<!-- Svg Vector Icons : http://www.onlinewebfonts.com/icon -->
<!DOCTYPE svg PUBLIC "-//W3C//DTD SVG 1.1//EN" "http://www.w3.org/Graphics/SVG/1.1/DTD/svg11.dtd">
<svg version="1.1" xmlns="http://www.w3.org/2000/svg" xmlns:xlink="http://www.w3.org/1999/xlink" x="0px" y="0px" viewBox="0 0 1000 1000" enable-background="new 0 0 1000 1000" xml:space="preserve">
<metadata> Svg Vector Icons : http://www.onlinewebfonts.com/icon </metadata>
<g><g transform="translate(0.000000,512.000000) scale(0.100000,-0.100000)"><path d="M4526.2,5008.1c-1477.3-151.4-2791.8-942.7-3625.3-2186.3C594.3,2362,306.9,1678,197.7,1139.5C115.3,733.3,100,574.3,100,124c0-450.3,15.3-605.5,97.7-1015.5C305-1422.3,592.4-2108.3,900.9-2573.9c921.6-1377.7,2458.4-2207.3,4094.7-2207.3c1850.9,0,3556.3,1059.6,4386,2722.8c831.6,1668.9,653.4,3631-467.5,5123.7c-776,1034.7-1921.8,1714.9-3228.6,1916.1C5445.9,5017.7,4771.4,5035,4526.2,5008.1z M5409.5,4548.3c599.7-57.5,1207.1-245.3,1722.6-528.8c390.9-216.5,651.5-415.8,998.3-760.7c697.5-695.5,1113.3-1517.6,1266.6-2504.3c46-304.7,46-958.1-1.9-1262.7c-115-751.1-398.5-1429.4-843.1-2029.2c-195.4-260.6-634.2-699.4-894.8-894.8c-599.7-444.5-1278-728.1-2029.2-843.1c-304.7-47.9-958.1-47.9-1262.7-1.9c-986.8,153.3-1808.8,569.1-2504.4,1266.6c-344.9,346.8-544.2,607.4-760.7,998.3c-728.1,1320.2-728.1,2952.7,0,4272.9c216.5,390.9,415.8,653.4,760.7,998.3c344.9,344.9,607.4,544.2,998.3,760.7c636.2,350.7,1358.5,540.4,2100,548C5091.4,4567.4,5294.5,4559.8,5409.5,4548.3z"/><path d="M4913.2,3707.1c-187.8-170.5-367.9-463.7-454.1-737.7c-59.4-189.7-74.7-555.7-28.7-777.9c40.2-205,118.8-392.8,239.5-576.8c95.8-145.6,291.3-360.2,327.7-360.2c32.6,0,218.4,199.3,300.8,321.9c210.8,310.4,293.2,572.9,293.2,946.6c0,429.2-157.1,810.5-467.5,1138.2l-122.6,128.4L4913.2,3707.1z"/><path d="M3424.4,1798.7c-26.8-3.8-84.3-13.4-128.4-19.2c-101.6-11.5-111.1-46-82.4-293.2c51.7-457.9,268.3-810.5,651.5-1069.2c254.8-170.5,519.3-287.4,841.2-369.8c256.8-65.2,239.5-80.5,226.1,206.9c-21.1,410.1-115,753-270.2,986.8c-161,241.4-465.6,450.3-758.8,517.3C3771.2,1789.1,3504.9,1812.1,3424.4,1798.7z"/><path d="M6254.5,1791c-279.8-34.5-544.2-155.2-739.6-337.2c-281.7-260.6-427.3-641.9-456-1199.5C5045.4-33.1,5028.2-17.8,5285,47.4c320,82.4,548,182,816.3,356.4c402.4,260.6,628.5,622.7,676.4,1080.7c23,233.8,13.4,281.7-65.2,295.1C6586,1800.6,6379.1,1806.3,6254.5,1791z"/><path d="M3284.6,148.9c-84.3-13.4-97.7-69-72.8-279.8c44.1-377.5,159-630.4,394.7-868c229.9-231.8,546.1-417.7,900.6-532.7c172.5-55.6,394.7-107.3,417.7-93.9c19.2,11.5,17.3,256.7-5.7,446.4c-30.7,245.3-88.1,450.3-183.9,649.5C4589.4-228.6,4334.6-14,3989.7,99.1c-126.5,40.2-195.4,49.8-402.4,53.7C3451.3,156.6,3313.3,154.7,3284.6,148.9z"/><path d="M6166.4,143.2C5528.3,9,5166.2-427.8,5074.2-1169.4c-21.1-180.1-28.7-436.9-11.5-454.1c32.6-30.7,473.3,97.7,716.6,206.9c220.4,101.6,498.2,297,638.1,446.4c147.5,159.1,266.3,383.2,321.9,603.6c46,182,59.4,458,23,494.4C6733.5,156.6,6290.9,168.1,6166.4,143.2z"/><path d="M3322.9-1483.6c-136-19.2-141.8-34.5-107.3-308.5c34.5-285.5,122.6-513.5,275.9-720.5c164.8-220.3,492.4-450.3,843.1-592.1c155.2-63.2,513.5-162.9,582.5-162.9c23,0,24.9,42.2,15.3,245.3c-28.7,536.5-162.9,912.1-419.6,1168.8C4219.6-1560.3,3773.2-1422.3,3322.9-1483.6z"/><path d="M6174-1493.2c-707.1-139.9-1073-641.9-1115.2-1529c-9.6-210.8-7.7-245.3,17.2-245.3c15.3,0,116.9,23,224.2,49.8c364.1,92,686,245.3,950.4,457.9c314.2,252.9,479,561.4,528.8,998.3c19.2,178.2,9.6,247.2-36.4,266.3C6674.1-1470.2,6304.3-1468.3,6174-1493.2z"/></g></g>
</svg>