<?xml version="1.0" encoding="utf-8"?>
<!-- Svg Vector Icons : http://www.onlinewebfonts.com/icon -->
<!DOCTYPE svg PUBLIC "-//W3C//DTD SVG 1.1//EN" "http://www.w3.org/Graphics/SVG/1.1/DTD/svg11.dtd">
<svg version="1.1" xmlns="http://www.w3.org/2000/svg" xmlns:xlink="http://www.w3.org/1999/xlink" x="0px" y="0px" viewBox="0 0 1000 1000" enable-background="new 0 0 1000 1000" xml:space="preserve">
<metadata> Svg Vector Icons : http://www.onlinewebfonts.com/icon </metadata>
<g><g transform="translate(0.000000,512.000000) scale(0.100000,-0.100000)"><path d="M4622.6,5016.9c-693.8-70.9-1213.2-214.7-1782.4-494.5c-500.2-245.3-856.7-498.3-1263-891.2c-417.8-408.2-722.6-828-981.3-1353.1c-241.5-494.5-389.1-979.4-471.5-1552.4c-32.6-226.2-32.6-981.3,0-1207.5c136.1-950.6,504.1-1803.5,1082.9-2506.9c1353.1-1642.5,3595.5-2229,5571.5-1458.5C8043.7-3952.7,9071-2923.5,9569.3-1650.9C9772.5-1127.7,9876-625.6,9897-41c46,1326.3-446.6,2604.6-1374.2,3562.9c-421.7,435.1-833.7,736-1370.4,998.5c-483,237.7-927.6,377.6-1466.2,460C5492.8,5009.2,4789.4,5034.1,4622.6,5016.9z M5410.4,4547.3c716.8-69,1464.3-331.6,2029.6-713c534.7-360.3,1054.1-900.8,1360.8-1418.3c1142.3-1916.6,714.9-4352.5-1010-5745.9C6686.8-4221,5272.4-4529.6,3896.3-4182.7c-783.9,199.3-1447,580.7-2035.4,1169.1c-345,346.9-544.3,607.6-760.9,998.5c-423.6,766.6-613.3,1684.7-529,2551c128.4,1322.4,829.9,2506.9,1933.8,3263.9c711.1,486.8,1573.5,757.1,2455.1,766.6C5092.2,4566.4,5295.4,4558.8,5410.4,4547.3z"/><path d="M4337.1,3452.9c-23-32.6-30.7-92-30.7-228.1c0-272.1-53.7-251.1,691.9-251.1c553.9,1.9,619.1,5.8,651.6,34.5c30.7,28.8,36.4,61.3,36.4,216.6c0,293.2,59.4,270.2-690,270.2C4365.8,3495.1,4365.8,3495.1,4337.1,3452.9z"/><path d="M4415.6,2552.1c-21.1-352.7-61.3-479.2-339.2-1052.2c-136.1-281.7-266.4-578.8-291.3-661.2l-42.1-151.4l-5.8-1849.5l-5.7-1849.5l44.1-76.7c26.8-49.8,70.9-92,128.4-120.7c84.3-42.2,84.3-42.2,1102-42.2h1015.8l76.7,44.1c42.2,23,95.8,76.7,118.8,118.8l44.1,76.7l-5.7,1839.9c-5.8,1826.5-5.8,1841.9-47.9,1997.1c-26.8,101.6-128.4,335.4-283.6,651.6c-276,565.4-327.7,726.4-346.9,1075.2l-11.5,214.7h-569.2h-569.2L4415.6,2552.1z"/></g></g>
</svg>